<svg width="24" height="24" viewBox="0 0 24 24" fill="none" xmlns="http://www.w3.org/2000/svg">
<path d="M12.625 2.625C12.625 2.45924 12.5592 2.30027 12.442 2.18306C12.3248 2.06585 12.1658 2 12 2C11.8343 2 11.6753 2.06585 11.5581 2.18306C11.4409 2.30027 11.375 2.45924 11.375 2.625V3.375C11.375 3.54076 11.4409 3.69973 11.5581 3.81694C11.6753 3.93415 11.8343 4 12 4C12.1658 4 12.3248 3.93415 12.442 3.81694C12.5592 3.69973 12.625 3.54076 12.625 3.375V2.625ZM12 5C10.9392 5 9.92176 5.42143 9.17161 6.17157C8.42147 6.92172 8.00004 7.93913 8.00004 9C8.00004 10.0609 8.42147 11.0783 9.17161 11.8284C9.92176 12.5786 10.9392 13 12 13C13.0609 13 14.0783 12.5786 14.8285 11.8284C15.5786 11.0783 16 10.0609 16 9C16 7.93913 15.5786 6.92172 14.8285 6.17157C14.0783 5.42143 13.0609 5 12 5ZM2.14504 21.775C2.25116 21.9023 2.40346 21.9822 2.56848 21.9972C2.7335 22.0122 2.89772 21.961 3.02504 21.855L3.03004 21.8515L3.05504 21.8315C3.07837 21.8125 3.11504 21.7842 3.16504 21.7465C3.26554 21.6715 3.41854 21.5615 3.62104 21.4285C4.19193 21.0568 4.78918 20.7273 5.40804 20.4425C7.47485 19.4896 9.72413 18.9974 12 19C14.78 19 17.0345 19.7215 18.5925 20.4425C19.2114 20.7273 19.8087 21.0568 20.3795 21.4285C20.5731 21.5559 20.7619 21.6903 20.9455 21.8315L20.9705 21.8515L20.9745 21.855C21.0376 21.9076 21.1104 21.9472 21.1888 21.9717C21.2672 21.9961 21.3496 22.0049 21.4314 21.9974C21.5131 21.99 21.5926 21.9665 21.6653 21.9284C21.738 21.8902 21.8025 21.8381 21.855 21.775C22.195 21.3345 21.775 20.895 21.775 20.895L21.7735 20.8935L21.7585 20.8815L21.7395 20.866L21.7215 20.851C21.6895 20.8257 21.6437 20.7907 21.584 20.746C21.4152 20.6202 21.2426 20.4995 21.0665 20.384C20.4443 19.9774 19.7927 19.6175 19.117 19.3075C16.8856 18.2786 14.4572 17.7472 12 17.75C9.54286 17.7472 7.11444 18.2786 4.88304 19.3075C4.04054 19.6975 3.38304 20.088 2.93354 20.384C2.70931 20.5314 2.49082 20.6874 2.27854 20.8515L2.24104 20.8815L2.23054 20.8905L2.22704 20.8935C2.01204 21.0715 1.97354 21.569 2.14504 21.775ZM12 14C12.345 14 12.625 14.28 12.625 14.625V15.375C12.625 15.5408 12.5592 15.6997 12.442 15.8169C12.3248 15.9342 12.1658 16 12 16C11.8343 16 11.6753 15.9342 11.5581 15.8169C11.4409 15.6997 11.375 15.5408 11.375 15.375V14.625C11.375 14.28 11.655 14 12 14ZM5.00004 8.625C5.00004 8.28 5.28004 8 5.62504 8H6.37504C6.5408 8 6.69977 8.06585 6.81698 8.18306C6.93419 8.30027 7.00004 8.45924 7.00004 8.625C7.00004 8.79076 6.93419 8.94973 6.81698 9.06694C6.69977 9.18415 6.5408 9.25 6.37504 9.25H5.62504C5.28004 9.25 5.00004 8.97 5.00004 8.625ZM17.625 8C17.4593 8 17.3003 8.06585 17.1831 8.18306C17.0659 8.30027 17 8.45924 17 8.625C17 8.79076 17.0659 8.94973 17.1831 9.06694C17.3003 9.18415 17.4593 9.25 17.625 9.25H18.375C18.5408 9.25 18.6998 9.18415 18.817 9.06694C18.9342 8.94973 19 8.79076 19 8.625C19 8.45924 18.9342 8.30027 18.817 8.18306C18.6998 8.06585 18.5408 8 18.375 8H17.625ZM7.81704 5.817C7.759 5.87505 7.6901 5.92111 7.61426 5.95253C7.53842 5.98395 7.45713 6.00012 7.37504 6.00012C7.29295 6.00012 7.21167 5.98395 7.13583 5.95253C7.05999 5.92111 6.99108 5.87505 6.93304 5.817L6.18304 5.067C6.06582 4.94977 5.99996 4.79078 5.99996 4.625C5.99996 4.54291 6.01613 4.46163 6.04754 4.38579C6.07895 4.30995 6.125 4.24104 6.18304 4.183C6.24109 4.12496 6.30999 4.07891 6.38583 4.0475C6.46167 4.01609 6.54295 3.99992 6.62504 3.99992C6.79082 3.99992 6.94982 4.06577 7.06704 4.183L7.81704 4.933C7.8751 4.99104 7.92115 5.05995 7.95257 5.13578C7.98399 5.21162 8.00016 5.29291 8.00016 5.375C8.00016 5.45709 7.98399 5.53838 7.95257 5.61422C7.92115 5.69005 7.8751 5.75896 7.81704 5.817ZM6.93304 12.183C7.05027 12.0658 7.20926 11.9999 7.37504 11.9999C7.54082 11.9999 7.69982 12.0658 7.81704 12.183C7.93427 12.3002 8.00012 12.4592 8.00012 12.625C8.00012 12.7908 7.93427 12.9498 7.81704 13.067L7.06704 13.817C6.94982 13.9342 6.79082 14.0001 6.62504 14.0001C6.45926 14.0001 6.30027 13.9342 6.18304 13.817C6.06582 13.6998 5.99996 13.5408 5.99996 13.375C5.99996 13.2092 6.06582 13.0502 6.18304 12.933L6.93304 12.183ZM16.183 5.817C16.2411 5.87505 16.31 5.92111 16.3858 5.95253C16.4617 5.98395 16.543 6.00012 16.625 6.00012C16.7071 6.00012 16.7884 5.98395 16.8643 5.95253C16.9401 5.92111 17.009 5.87505 17.067 5.817L17.817 5.067C17.8751 5.00896 17.9211 4.94005 17.9525 4.86421C17.984 4.78837 18.0001 4.70709 18.0001 4.625C18.0001 4.54291 17.984 4.46163 17.9525 4.38579C17.9211 4.30995 17.8751 4.24104 17.817 4.183C17.759 4.12496 17.6901 4.07891 17.6143 4.0475C17.5384 4.01609 17.4571 3.99992 17.375 3.99992C17.293 3.99992 17.2117 4.01609 17.1358 4.0475C17.06 4.07891 16.9911 4.12496 16.933 4.183L16.183 4.933C16.125 4.99104 16.0789 5.05995 16.0475 5.13578C16.0161 5.21162 15.9999 5.29291 15.9999 5.375C15.9999 5.45709 16.0161 5.53838 16.0475 5.61422C16.0789 5.69005 16.125 5.75896 16.183 5.817ZM17.067 12.183C17.009 12.125 16.9401 12.0789 16.8643 12.0475C16.7884 12.0161 16.7071 11.9999 16.625 11.9999C16.543 11.9999 16.4617 12.0161 16.3858 12.0475C16.31 12.0789 16.2411 12.125 16.183 12.183C16.125 12.241 16.079 12.31 16.0475 12.3858C16.0161 12.4616 16 12.5429 16 12.625C16 12.7071 16.0161 12.7884 16.0475 12.8642C16.079 12.94 16.125 13.009 16.183 13.067L16.933 13.817C17.0503 13.9342 17.2093 14.0001 17.375 14.0001C17.5408 14.0001 17.6998 13.9342 17.817 13.817C17.9343 13.6998 18.0001 13.5408 18.0001 13.375C18.0001 13.2092 17.9343 13.0502 17.817 12.933L17.067 12.183Z" fill="#8340F9"/>
</svg>
