<svg width="28" height="28" viewBox="0 0 28 28" fill="none" xmlns="http://www.w3.org/2000/svg">
<path fill-rule="evenodd" clip-rule="evenodd" d="M9.89092 1.86677C9.99051 1.92437 10.0778 2.00105 10.1477 2.09241C10.2176 2.18377 10.2688 2.28803 10.2984 2.39921C10.328 2.51039 10.3354 2.62632 10.3201 2.74035C10.3048 2.85439 10.2672 2.96429 10.2094 3.06377C9.97452 3.47004 9.80707 3.91172 9.71359 4.3716C9.78126 4.43927 9.85125 4.5046 9.92359 4.5676C10.4152 3.96038 11.0364 3.47079 11.7418 3.13469C12.4471 2.79858 13.2186 2.62447 13.9999 2.6251C15.6484 2.6251 17.1184 3.3846 18.0798 4.5711C18.1498 4.5081 18.2198 4.44277 18.2874 4.37627C18.1941 3.91468 18.0263 3.47138 17.7904 3.06377C17.7328 2.96433 17.6954 2.85453 17.6802 2.74062C17.665 2.62671 17.6724 2.51093 17.702 2.39989C17.7316 2.28884 17.7827 2.18471 17.8526 2.09344C17.9224 2.00217 18.0095 1.92554 18.1089 1.86793C18.2084 1.81033 18.3182 1.77287 18.4321 1.7577C18.546 1.74253 18.6618 1.74994 18.7728 1.77952C18.8838 1.80909 18.988 1.86025 19.0792 1.93007C19.1705 1.99989 19.2472 2.087 19.3048 2.18643C19.7288 2.91905 19.9954 3.73201 20.0876 4.57343C20.1009 4.69559 20.0884 4.81918 20.0508 4.93617C20.0132 5.05316 19.9514 5.16092 19.8694 5.25243C19.5883 5.56743 19.2803 5.8591 18.9513 6.12627C19.2286 6.91134 19.315 7.75118 19.2033 8.57627C19.0796 9.50027 18.3248 10.0871 17.5501 10.2131C17.3378 10.2481 17.1254 10.2796 16.9119 10.3076C17.0893 10.5724 17.2304 10.8629 17.3308 11.1733C18.8448 10.9879 20.3404 10.6745 21.8014 10.2364C21.726 9.20526 21.5916 8.17925 21.3989 7.16343C21.3556 6.93539 21.4046 6.69948 21.5353 6.5076C21.6659 6.31572 21.8674 6.18359 22.0954 6.14027C22.3235 6.09695 22.5594 6.14599 22.7513 6.27661C22.9431 6.40723 23.0753 6.60873 23.1186 6.83677C23.3636 8.1376 23.5246 9.46877 23.5899 10.8244C23.5994 11.0161 23.5456 11.2056 23.4369 11.3637C23.3281 11.5218 23.1703 11.6398 22.9879 11.6994C21.2064 12.2816 19.3491 12.6958 17.4346 12.9233C17.3483 13.3666 17.1779 13.7808 16.9411 14.1483C19.3514 14.3921 21.6754 14.9323 23.8746 15.7326C24.0518 15.7971 24.2034 15.9172 24.3068 16.0748C24.4102 16.2325 24.46 16.4194 24.4486 16.6076C24.3029 19.0878 23.8367 21.5388 23.0614 23.8993C23.0254 24.0084 22.9683 24.1094 22.8932 24.1965C22.8182 24.2836 22.7267 24.355 22.6241 24.4067C22.5214 24.4585 22.4096 24.4895 22.295 24.498C22.1804 24.5065 22.0652 24.4924 21.956 24.4563C21.8468 24.4203 21.7458 24.3632 21.6588 24.2882C21.5717 24.2131 21.5003 24.1217 21.4485 24.019C21.3968 23.9164 21.3658 23.8045 21.3573 23.6899C21.3488 23.5753 21.3629 23.4601 21.3989 23.3509C22.0585 21.3438 22.4803 19.2661 22.6554 17.1606C22.0721 16.9634 21.4783 16.7873 20.8774 16.6298C20.9568 16.9028 20.9988 17.1944 20.9988 17.5001C20.9988 22.1154 18.0576 26.2501 13.9988 26.2501C9.94109 26.2501 6.99875 22.1154 6.99875 17.5001C6.99875 17.1944 7.04192 16.9039 7.12009 16.6298C6.52042 16.7873 5.92775 16.9634 5.34442 17.1606C5.52409 19.3049 5.95109 21.3793 6.60092 23.3521C6.63843 23.4617 6.65382 23.5776 6.64618 23.6932C6.63854 23.8088 6.60803 23.9217 6.55641 24.0254C6.5048 24.1291 6.43312 24.2215 6.34552 24.2973C6.25792 24.373 6.15615 24.4307 6.0461 24.4668C5.93606 24.5029 5.81994 24.5169 5.70447 24.5078C5.589 24.4987 5.47648 24.4668 5.37344 24.4139C5.2704 24.361 5.17889 24.2882 5.10421 24.1996C5.02954 24.1111 4.97318 24.0086 4.93842 23.8981C4.16275 21.5377 3.69609 19.0867 3.55009 16.6064C3.53904 16.4183 3.58906 16.2315 3.6927 16.0741C3.79634 15.9166 3.94805 15.7969 4.12525 15.7326C6.00013 15.0503 7.94108 14.5654 9.91659 14.2859H9.92826C10.3028 14.2323 10.6796 14.1868 11.0588 14.1483C10.8172 13.7753 10.6493 13.3594 10.5641 12.9233C8.67701 12.6997 6.81677 12.2893 5.01075 11.6983C4.82834 11.6386 4.67059 11.5207 4.56181 11.3626C4.45303 11.2044 4.39925 11.0149 4.40875 10.8233C4.47525 9.46993 4.63509 8.1376 4.88125 6.83677C4.92457 6.60873 5.05671 6.40723 5.24859 6.27661C5.44047 6.14599 5.67638 6.09695 5.90442 6.14027C6.13246 6.18359 6.33396 6.31572 6.46458 6.5076C6.59519 6.69948 6.64424 6.93539 6.60092 7.16343C6.40959 8.1691 6.27425 9.19343 6.19842 10.2364C7.64159 10.6693 9.13492 10.9854 10.6691 11.1733C10.7683 10.8629 10.9106 10.5724 11.0879 10.3076C10.8748 10.2796 10.662 10.2485 10.4498 10.2143C9.67509 10.0859 8.92026 9.50027 8.79659 8.57627C8.6865 7.74991 8.77325 6.90923 9.04976 6.12277C8.72035 5.85579 8.41292 5.5628 8.13042 5.2466C8.04826 5.15495 7.98637 5.047 7.94877 4.92979C7.91118 4.81259 7.89874 4.68877 7.91225 4.56643C8.00507 3.7275 8.27125 2.91703 8.69392 2.18643C8.75152 2.08684 8.8282 1.99958 8.91956 1.92966C9.01093 1.85974 9.11518 1.80852 9.22637 1.77893C9.33755 1.74935 9.45347 1.74198 9.56751 1.75725C9.68154 1.77253 9.79144 1.80897 9.89092 1.86677Z" fill="#8E49F9"/>
</svg>
