<svg width="28" height="28" viewBox="0 0 28 28" fill="none" xmlns="http://www.w3.org/2000/svg">
<path d="M13.606 10.376C13.606 11.2051 13.9353 12.0002 14.5215 12.5864C15.1078 13.1727 15.9029 13.502 16.732 13.502C17.561 13.502 18.3561 13.1727 18.9424 12.5864C19.5286 12.0002 19.858 11.2051 19.858 10.376C19.858 9.54693 19.5286 8.75182 18.9424 8.16558C18.3561 7.57935 17.561 7.25 16.732 7.25C15.9029 7.25 15.1078 7.57935 14.5215 8.16558C13.9353 8.75182 13.606 9.54693 13.606 10.376Z" stroke="#FF3B32" stroke-width="1.7" stroke-linecap="round" stroke-linejoin="round"/>
<path d="M10.928 2.786C10.928 1.8 11.728 1 12.714 1H25.214C26.2 1 27 1.8 27 2.786V24.214C27 25.2 26.2 26 25.214 26H18.964" stroke="#FF3B32" stroke-width="1.7" stroke-linecap="round" stroke-linejoin="round"/>
<path d="M5.57202 11.7139H9.20802C9.73841 11.714 10.247 11.9248 10.622 12.2999L15.7 17.3799C16.0753 17.7542 16.5839 17.9643 17.114 17.9639H19.86" stroke="#FF3B32" stroke-width="1.7" stroke-linecap="round" stroke-linejoin="round"/>
<path d="M12.714 14.3921L7.942 19.1641C7.56701 19.5392 7.05839 19.75 6.528 19.7501H2" stroke="#FF3B32" stroke-width="1.7" stroke-linecap="round" stroke-linejoin="round"/>
<path d="M9.14209 17.9639L12.1281 20.9499C12.5032 21.3249 12.714 21.8335 12.7141 22.3639V25.9999" stroke="#FF3B32" stroke-width="1.7" stroke-linecap="round" stroke-linejoin="round"/>
</svg>
