<svg width="28" height="28" viewBox="0 0 28 28" fill="none" xmlns="http://www.w3.org/2000/svg">
<path d="M15.75 4.73675C15.75 3.17809 13.8647 2.39759 12.7633 3.50009L7.51334 8.75009H5.25934C3.92818 8.75009 2.55501 9.52475 2.15601 10.9726C1.88532 11.9589 1.74875 12.9773 1.75001 14.0001C1.75001 15.0478 1.89118 16.0628 2.15834 17.0276C2.55618 18.4743 3.92934 19.2501 5.26051 19.2501H7.51218L12.7622 24.5001C13.8647 25.6026 15.75 24.8221 15.75 23.2634V4.73675ZM21.6813 5.95709C21.8454 5.79323 22.0678 5.70119 22.2997 5.70119C22.5316 5.70119 22.7539 5.79323 22.918 5.95709C27.3607 10.3986 27.3607 17.6004 22.918 22.0431C22.7521 22.1976 22.5328 22.2818 22.3061 22.2778C22.0794 22.2738 21.8631 22.182 21.7028 22.0216C21.5425 21.8613 21.4506 21.645 21.4466 21.4184C21.4426 21.1917 21.5268 20.9723 21.6813 20.8064C22.5752 19.9126 23.2843 18.8515 23.7681 17.6837C24.2519 16.5159 24.5009 15.2642 24.5009 14.0001C24.5009 12.736 24.2519 11.4843 23.7681 10.3165C23.2843 9.14864 22.5752 8.08753 21.6813 7.19375C21.5175 7.02969 21.4254 6.8073 21.4254 6.57542C21.4254 6.34354 21.5175 6.12115 21.6813 5.95709Z" fill="#8340F9"/>
<path d="M18.5872 9.04994C18.6685 8.96863 18.765 8.90412 18.8712 8.86012C18.9774 8.81611 19.0912 8.79346 19.2062 8.79346C19.3211 8.79346 19.4349 8.81611 19.5411 8.86012C19.6473 8.90412 19.7438 8.96863 19.8251 9.04994C20.4752 9.69996 20.9909 10.4717 21.3428 11.321C21.6947 12.1704 21.8758 13.0808 21.8758 14.0001C21.8758 14.9195 21.6947 15.8298 21.3428 16.6792C20.9909 17.5285 20.4752 18.3002 19.8251 18.9503C19.66 19.1096 19.4389 19.1977 19.2095 19.1956C18.9801 19.1935 18.7606 19.1013 18.5985 18.939C18.4363 18.7767 18.3444 18.5572 18.3425 18.3278C18.3406 18.0984 18.4289 17.8774 18.5884 17.7124C19.0759 17.2249 19.4626 16.6462 19.7265 16.0092C19.9903 15.3722 20.1261 14.6895 20.1261 14.0001C20.1261 13.3107 19.9903 12.628 19.7265 11.991C19.4626 11.354 19.0759 10.7753 18.5884 10.2878C18.4246 10.1237 18.3325 9.90131 18.3325 9.66944C18.3325 9.43756 18.4246 9.21517 18.5884 9.0511L18.5872 9.04994Z" fill="#8340F9"/>
</svg>
