<svg width="29" height="29" viewBox="0 0 29 29" fill="none" xmlns="http://www.w3.org/2000/svg">
<path fill-rule="evenodd" clip-rule="evenodd" d="M14.5 2.71875C7.99312 2.71875 2.71875 7.99312 2.71875 14.5C2.71875 21.0069 7.99312 26.2812 14.5 26.2812C21.0069 26.2812 26.2812 21.0069 26.2812 14.5C26.2812 7.99312 21.0069 2.71875 14.5 2.71875ZM11.3281 9.96875C10.6756 9.96875 10.3276 10.475 10.1971 10.7348C10.0421 11.0616 9.96397 11.4196 9.96875 11.7812C9.96875 12.1413 10.04 12.5123 10.1971 12.8277C10.3276 13.0875 10.6744 13.5938 11.3281 13.5938C11.9806 13.5938 12.3286 13.0875 12.4591 12.8277C12.6162 12.5135 12.6875 12.1413 12.6875 11.7812C12.6875 11.4212 12.6162 11.0502 12.4591 10.7348C12.3286 10.475 11.9818 9.96875 11.3281 9.96875ZM16.5409 10.7348C16.6714 10.475 17.0182 9.96875 17.6719 9.96875C18.3244 9.96875 18.6724 10.475 18.8029 10.7348C18.96 11.049 19.0312 11.4212 19.0312 11.7812C19.0312 12.1413 18.96 12.5123 18.8029 12.8277C18.6724 13.0875 18.3256 13.5938 17.6719 13.5938C17.0194 13.5938 16.6714 13.0875 16.5409 12.8277C16.3858 12.5009 16.3077 12.1429 16.3125 11.7812C16.3125 11.4212 16.3838 11.0502 16.5409 10.7348ZM18.9853 18.9853C19.0744 18.9024 19.1458 18.8023 19.1953 18.6912C19.2449 18.58 19.2715 18.46 19.2736 18.3383C19.2758 18.2166 19.2534 18.0957 19.2078 17.9829C19.1622 17.8701 19.0944 17.7676 19.0083 17.6815C18.9223 17.5954 18.8198 17.5276 18.7069 17.482C18.5941 17.4364 18.4732 17.4141 18.3515 17.4162C18.2299 17.4183 18.1098 17.445 17.9987 17.4945C17.8875 17.544 17.7875 17.6155 17.7045 17.7045C17.2837 18.1254 16.7841 18.4593 16.2343 18.6871C15.6845 18.9149 15.0952 19.0321 14.5 19.0321C13.9048 19.0321 13.3155 18.9149 12.7657 18.6871C12.2159 18.4593 11.7163 18.1254 11.2955 17.7045C11.1237 17.5444 10.8965 17.4573 10.6617 17.4614C10.4269 17.4656 10.2029 17.5607 10.0369 17.7267C9.87083 17.8927 9.77572 18.1168 9.77158 18.3515C9.76744 18.5863 9.85459 18.8135 10.0147 18.9853C11.2043 20.1748 12.8177 20.843 14.5 20.843C16.1823 20.843 17.7957 20.1748 18.9853 18.9853Z" fill="#8E49F9"/>
</svg>
