<svg width="28" height="28" viewBox="0 0 28 28" fill="none" xmlns="http://www.w3.org/2000/svg">
<path fill-rule="evenodd" clip-rule="evenodd" d="M19.25 4.375C19.7141 4.375 20.1592 4.55937 20.4874 4.88756C20.8156 5.21575 21 5.66087 21 6.125V21.875C21 22.3391 20.8156 22.7842 20.4874 23.1124C20.1592 23.4406 19.7141 23.625 19.25 23.625H12.25C11.7858 23.625 11.3407 23.4406 11.0125 23.1124C10.6843 22.7842 10.5 22.3391 10.5 21.875V17.5C10.5 17.2679 10.4078 17.0454 10.2437 16.8813C10.0796 16.7172 9.85703 16.625 9.62496 16.625C9.3929 16.625 9.17034 16.7172 9.00625 16.8813C8.84215 17.0454 8.74996 17.2679 8.74996 17.5V21.875C8.74996 22.8033 9.11871 23.6935 9.77509 24.3499C10.4315 25.0063 11.3217 25.375 12.25 25.375H19.25C20.1782 25.375 21.0685 25.0063 21.7248 24.3499C22.3812 23.6935 22.75 22.8033 22.75 21.875V6.125C22.75 5.19674 22.3812 4.3065 21.7248 3.65013C21.0685 2.99375 20.1782 2.625 19.25 2.625H12.25C11.3217 2.625 10.4315 2.99375 9.77509 3.65013C9.11871 4.3065 8.74996 5.19674 8.74996 6.125V10.5C8.74996 10.7321 8.84215 10.9546 9.00625 11.1187C9.17034 11.2828 9.3929 11.375 9.62496 11.375C9.85703 11.375 10.0796 11.2828 10.2437 11.1187C10.4078 10.9546 10.5 10.7321 10.5 10.5V6.125C10.5 5.66087 10.6843 5.21575 11.0125 4.88756C11.3407 4.55937 11.7858 4.375 12.25 4.375H19.25ZM6.7433 9.88167C6.57923 9.71781 6.35684 9.62577 6.12496 9.62577C5.89309 9.62577 5.67069 9.71781 5.50663 9.88167L2.00663 13.3817C1.84277 13.5457 1.75073 13.7681 1.75073 14C1.75073 14.2319 1.84277 14.4543 2.00663 14.6183L5.50663 18.1183C5.6725 18.2729 5.89189 18.357 6.11857 18.353C6.34526 18.349 6.56154 18.2572 6.72186 18.0969C6.88217 17.9366 6.974 17.7203 6.978 17.4936C6.982 17.2669 6.89786 17.0475 6.7433 16.8817L4.73663 14.875H17.5C17.732 14.875 17.9546 14.7828 18.1187 14.6187C18.2828 14.4546 18.375 14.2321 18.375 14C18.375 13.7679 18.2828 13.5454 18.1187 13.3813C17.9546 13.2172 17.732 13.125 17.5 13.125H4.73663L6.7433 11.1183C6.90716 10.9543 6.99919 10.7319 6.99919 10.5C6.99919 10.2681 6.90716 10.0457 6.7433 9.88167Z" fill="#FF3B32"/>
</svg>
