<svg width="61" height="22" viewBox="0 0 61 22" fill="none" xmlns="http://www.w3.org/2000/svg">
<g clip-path="url(#clip0_4184_13146)">
<path d="M0.5 21.9776V0.88916H8.20519C12.9076 0.88916 15.4287 3.83102 15.4287 7.87991C15.4287 11.9285 12.8792 14.8415 8.14846 14.8415H4.18263V21.9776H0.5ZM4.18263 11.7247H7.63863C10.4147 11.7247 11.6612 10.1226 11.6612 7.87991C11.6612 5.60774 10.4147 4.06398 7.63863 4.06398H4.18263V11.7247Z" fill="white"/>
<path d="M24.8507 10.6748C24.8507 9.11425 23.6203 7.84915 22.1026 7.84915C20.5849 7.84915 19.3545 9.11425 19.3545 10.6748V19.1519C19.3545 20.7125 20.5849 21.9776 22.1026 21.9776C23.6203 21.9776 24.8507 20.7125 24.8507 19.1519V10.6748Z" fill="#D1C1F9"/>
<path d="M24.8507 2.82569C24.8507 1.2651 23.6203 0 22.1026 0C20.5849 0 19.3545 1.2651 19.3545 2.82569V3.76758C19.3545 5.32817 20.5849 6.59327 22.1026 6.59327C23.6203 6.59327 24.8507 5.32817 24.8507 3.76758V2.82569Z" fill="#D1C1F9"/>
<path d="M28.7769 19.7681C28.7769 21.1034 29.8407 22.211 31.1112 21.9351C32.8733 21.5523 34.5265 20.7392 35.9158 19.5527C37.906 17.8535 39.2245 15.5 39.634 12.9158C40.0434 10.3315 39.517 7.68606 38.1494 5.45534C37.1906 3.89116 35.8627 2.60297 34.2965 1.69404C33.1762 1.0435 31.8465 1.75212 31.4388 3.00704C31.0211 4.29147 31.7573 5.65032 32.7713 6.51466C33.2602 6.9316 33.6846 7.42549 34.0254 7.98148C34.7912 9.23077 35.0861 10.7124 34.8569 12.1595C34.6275 13.6065 33.8892 14.9245 32.7747 15.8762C32.2633 16.3126 31.6883 16.6589 31.0743 16.9059C29.8648 17.3923 28.7769 18.4328 28.7769 19.7681Z" fill="#D1C1F9"/>
<path d="M43.6948 21.9776V0.667175H47.4163V10.4688H47.7025L55.8038 0.667175H60.3553L52.34 10.2334L60.4411 21.9776H55.9467L49.7348 12.8236L47.4163 15.6198V21.9776H43.6948Z" fill="white"/>
</g>
<defs>
<clipPath id="clip0_4184_13146">
<rect width="60" height="22" fill="white" transform="translate(0.5)"/>
</clipPath>
</defs>
</svg>
