<svg width="61" height="22" viewBox="0 0 61 22" fill="none" xmlns="http://www.w3.org/2000/svg">
<g clip-path="url(#clip0_4184_8763)">
<path d="M0.5 21.9776V0.88916H8.20519C12.9076 0.88916 15.4287 3.83102 15.4287 7.87991C15.4287 11.9285 12.8792 14.8415 8.14846 14.8415H4.18263V21.9776H0.5ZM4.18263 11.7247H7.63863C10.4147 11.7247 11.6612 10.1226 11.6612 7.87991C11.6612 5.60774 10.4147 4.06398 7.63863 4.06398H4.18263V11.7247Z" fill="#141414"/>
<path d="M24.8508 10.6748C24.8508 9.11425 23.6204 7.84915 22.1027 7.84915C20.585 7.84915 19.3546 9.11425 19.3546 10.6748V19.1519C19.3546 20.7125 20.585 21.9776 22.1027 21.9776C23.6204 21.9776 24.8508 20.7125 24.8508 19.1519V10.6748Z" fill="#8E49F9"/>
<path d="M24.8508 2.82569C24.8508 1.2651 23.6204 0 22.1027 0C20.585 0 19.3546 1.2651 19.3546 2.82569V3.76758C19.3546 5.32817 20.585 6.59327 22.1027 6.59327C23.6204 6.59327 24.8508 5.32817 24.8508 3.76758V2.82569Z" fill="#8E49F9"/>
<path d="M28.7766 19.7681C28.7766 21.1034 29.8405 22.211 31.111 21.9351C32.8731 21.5523 34.5262 20.7392 35.9156 19.5527C37.9058 17.8535 39.2243 15.5 39.6337 12.9158C40.0432 10.3315 39.5167 7.68606 38.1491 5.45534C37.1904 3.89116 35.8624 2.60297 34.2963 1.69404C33.176 1.0435 31.8462 1.75212 31.4386 3.00704C31.0209 4.29147 31.757 5.65032 32.7711 6.51466C33.26 6.9316 33.6844 7.42549 34.0251 7.98148C34.7909 9.23077 35.0859 10.7124 34.8566 12.1595C34.6273 13.6065 33.889 14.9245 32.7745 15.8762C32.263 16.3126 31.6881 16.6589 31.074 16.9059C29.8645 17.3923 28.7766 18.4328 28.7766 19.7681Z" fill="#8E49F9"/>
<path d="M43.6948 21.9776V0.667175H47.4163V10.4688H47.7025L55.8038 0.667175H60.3553L52.34 10.2334L60.4411 21.9776H55.9467L49.7348 12.8236L47.4163 15.6198V21.9776H43.6948Z" fill="#141414"/>
</g>
<defs>
<clipPath id="clip0_4184_8763">
<rect width="60" height="22" fill="white" transform="translate(0.5)"/>
</clipPath>
</defs>
</svg>
