<svg width="28" height="28" viewBox="0 0 28 28" fill="none" xmlns="http://www.w3.org/2000/svg">
<path fill-rule="evenodd" clip-rule="evenodd" d="M2.625 14C2.625 7.7175 7.7175 2.625 14 2.625C20.2825 2.625 25.375 7.7175 25.375 14C25.375 20.2825 20.2825 25.375 14 25.375C7.7175 25.375 2.625 20.2825 2.625 14ZM18.2117 11.8837C18.2817 11.7904 18.3323 11.6841 18.3606 11.5709C18.389 11.4578 18.3944 11.3402 18.3766 11.2249C18.3588 11.1097 18.3181 10.9991 18.257 10.8998C18.1959 10.8005 18.1155 10.7144 18.0206 10.6466C17.9258 10.5788 17.8183 10.5306 17.7045 10.5049C17.5908 10.4793 17.473 10.4766 17.3582 10.497C17.2434 10.5175 17.1339 10.5607 17.036 10.6241C16.9381 10.6876 16.8539 10.7699 16.7883 10.8663L13.013 16.1513L11.1183 14.2567C10.9525 14.1021 10.7331 14.018 10.5064 14.022C10.2797 14.026 10.0634 14.1178 9.90311 14.2781C9.74279 14.4384 9.65096 14.6547 9.64696 14.8814C9.64296 15.1081 9.72711 15.3275 9.88167 15.4933L12.5067 18.1183C12.5965 18.2081 12.7048 18.2772 12.824 18.3209C12.9432 18.3646 13.0705 18.3819 13.1971 18.3714C13.3236 18.361 13.4464 18.3231 13.5568 18.2605C13.6673 18.1979 13.7628 18.1119 13.8367 18.0087L18.2117 11.8837Z" fill="#6F6D72"/>
</svg>
