<svg width="28" height="28" viewBox="0 0 28 28" fill="none" xmlns="http://www.w3.org/2000/svg">
<path d="M2.625 18.375L8.64383 12.3562C8.88759 12.1124 9.17697 11.9191 9.49545 11.7871C9.81393 11.6552 10.1553 11.5873 10.5 11.5873C10.8447 11.5873 11.1861 11.6552 11.5046 11.7871C11.823 11.9191 12.1124 12.1124 12.3562 12.3562L18.375 18.375M16.625 16.625L18.2688 14.9812C18.5126 14.7374 18.802 14.5441 19.1204 14.4121C19.4389 14.2802 19.7803 14.2123 20.125 14.2123C20.4697 14.2123 20.8111 14.2802 21.1296 14.4121C21.448 14.5441 21.7374 14.7374 21.9812 14.9812L25.375 18.375M4.375 22.75H23.625C24.0891 22.75 24.5342 22.5656 24.8624 22.2374C25.1906 21.9092 25.375 21.4641 25.375 21V7C25.375 6.53587 25.1906 6.09075 24.8624 5.76256C24.5342 5.43437 24.0891 5.25 23.625 5.25H4.375C3.91087 5.25 3.46575 5.43437 3.13756 5.76256C2.80937 6.09075 2.625 6.53587 2.625 7V21C2.625 21.4641 2.80937 21.9092 3.13756 22.2374C3.46575 22.5656 3.91087 22.75 4.375 22.75ZM16.625 9.625H16.6343V9.63433H16.625V9.625ZM17.0625 9.625C17.0625 9.74103 17.0164 9.85231 16.9344 9.93436C16.8523 10.0164 16.741 10.0625 16.625 10.0625C16.509 10.0625 16.3977 10.0164 16.3156 9.93436C16.2336 9.85231 16.1875 9.74103 16.1875 9.625C16.1875 9.50897 16.2336 9.39769 16.3156 9.31564C16.3977 9.23359 16.509 9.1875 16.625 9.1875C16.741 9.1875 16.8523 9.23359 16.9344 9.31564C17.0164 9.39769 17.0625 9.50897 17.0625 9.625Z" stroke="#8C8A8F" stroke-width="1.5" stroke-linecap="round" stroke-linejoin="round"/>
</svg>
