<svg width="24" height="24" viewBox="0 0 24 24" fill="none" xmlns="http://www.w3.org/2000/svg">
<g clip-path="url(#clip0_1617_10731)">
<path fill-rule="evenodd" clip-rule="evenodd" d="M4.00933 3.03088C4.13596 3.03088 4.26135 3.05583 4.37835 3.10429C4.49534 3.15275 4.60164 3.22377 4.69118 3.31332C4.78072 3.40286 4.85175 3.50916 4.90021 3.62615C4.94867 3.74315 4.97362 3.86854 4.97362 3.99517V7.20946C4.97365 7.63521 5.09448 8.05221 5.32207 8.41203C5.54965 8.77184 5.87466 9.0597 6.25933 9.24217V3.99517C6.25933 3.73943 6.36092 3.49416 6.54176 3.31332C6.7226 3.13248 6.96787 3.03088 7.22362 3.03088C7.47936 3.03088 7.72463 3.13248 7.90547 3.31332C8.08631 3.49416 8.1879 3.73943 8.1879 3.99517V9.24217C8.57257 9.0597 8.89758 8.77184 9.12516 8.41203C9.35275 8.05221 9.47358 7.63521 9.47362 7.20946V3.99517C9.47362 3.73943 9.57521 3.49416 9.75605 3.31332C9.93689 3.13248 10.1822 3.03088 10.4379 3.03088C10.6936 3.03088 10.9389 3.13248 11.1198 3.31332C11.3006 3.49416 11.4022 3.73943 11.4022 3.99517V7.20946C11.4021 8.0928 11.1221 8.9534 10.6023 9.66766C10.0826 10.3819 9.34982 10.9131 8.50933 11.1849V19.7143C8.50933 20.0553 8.37387 20.3823 8.13275 20.6235C7.89163 20.8646 7.56461 21 7.22362 21C6.88262 21 6.5556 20.8646 6.31448 20.6235C6.07336 20.3823 5.9379 20.0553 5.9379 19.7143V11.1862C5.0972 10.9143 4.36431 10.3829 3.84454 9.66843C3.32476 8.95391 3.04486 8.09302 3.04504 7.20946V3.99517C3.04504 3.73943 3.14664 3.49416 3.32748 3.31332C3.50832 3.13248 3.75359 3.03088 4.00933 3.03088ZM16.9308 3.03088C14.6525 3.03088 13.1495 5.25131 13.1495 7.51674C13.1495 9.32188 14.1035 11.0987 15.6438 11.7467V19.7143C15.6438 20.0553 15.7792 20.3823 16.0203 20.6235C16.2615 20.8646 16.5885 21 16.9295 21C17.2705 21 17.5975 20.8646 17.8386 20.6235C18.0797 20.3823 18.2152 20.0553 18.2152 19.7143V11.7455C19.758 11.0987 20.712 9.32188 20.712 7.51546C20.712 5.25131 19.2078 3.03088 16.9308 3.03088Z" fill="#8C8A8F"/>
</g>
<defs>
<clipPath id="clip0_1617_10731">
<rect width="18" height="18" fill="white" transform="translate(3 3)"/>
</clipPath>
</defs>
</svg>
