<svg width="24" height="24" viewBox="0 0 24 24" fill="none" xmlns="http://www.w3.org/2000/svg">
<path d="M16.4759 14.8064C12.1129 14.8064 9.32232 12.0726 9.32232 7.70168C9.32232 6.79845 9.54013 5.50813 9.82262 4.83888C9.90314 4.65308 9.91105 4.54022 9.91105 4.4597C9.91105 4.24189 9.75002 4 9.44344 4C9.34675 4 9.16129 4.02409 8.98374 4.08877C5.99983 5.28241 4 8.49204 4 11.871C4 16.6128 7.6129 20 12.3386 20C15.8063 20 18.8225 17.8952 19.8225 15.2661C19.8715 15.1204 19.8987 14.9683 19.903 14.8146C19.903 14.5163 19.6611 14.3147 19.435 14.3147C19.3304 14.3147 19.2416 14.3388 19.0885 14.3869C18.4678 14.5886 17.4679 14.8067 16.4759 14.8067" fill="#8340F9"/>
</svg>
