<svg width="27" height="26" viewBox="0 0 27 26" fill="none" xmlns="http://www.w3.org/2000/svg">
<path d="M14.735 1.3335C21.1867 1.3335 26.4133 6.5835 26.4133 13.0002C26.4133 19.4168 21.1867 24.6668 14.735 24.6668C10.7701 24.6668 7.2865 22.6763 5.1736 19.6377C5.05563 19.4681 5.09395 19.2371 5.256 19.1089L6.46046 18.156C6.64827 18.0074 6.92319 18.0566 7.05829 18.2543C8.73967 20.7153 11.5475 22.3335 14.7467 22.3335C17.222 22.3335 19.596 21.3502 21.3463 19.5998C23.0967 17.8495 24.08 15.4755 24.08 13.0002C24.08 10.5248 23.0967 8.15084 21.3463 6.4005C19.596 4.65016 17.222 3.66683 14.7467 3.66683C10.1425 3.66683 6.32416 7.00697 5.5618 11.3856C5.52055 11.6225 5.70733 11.8335 5.94783 11.8335H7.74748C8.1041 11.8335 8.28245 12.2649 8.02995 12.5167L4.63451 15.9031C4.47824 16.0589 4.22526 16.0588 4.0692 15.9027L0.682842 12.5163C0.430856 12.2644 0.609324 11.8335 0.965686 11.8335H2.77598C2.98163 11.8335 3.15308 11.6769 3.17969 11.473C3.9258 5.75491 8.8155 1.3335 14.735 1.3335ZM18.1883 10.5547C18.1883 10.7725 18.3683 10.9433 18.5708 11.0236C18.9669 11.1807 19.25 11.5625 19.25 12.0202V17.3985C19.25 17.9818 18.7717 18.4718 18.1767 18.4718H11.725C11.13 18.4718 10.6517 17.9818 10.6517 17.3985V12.0202C10.6517 11.5625 10.9347 11.1807 11.3309 11.0236C11.5334 10.9433 11.7133 10.7725 11.7133 10.5547V9.7685C11.7133 7.9835 13.1717 6.53683 14.945 6.53683C16.73 6.53683 18.1883 7.9835 18.1883 9.7685V10.5547ZM14.945 8.17016C14.07 8.17016 13.3467 8.88183 13.3467 9.7685V10.5468C13.3467 10.7677 13.5258 10.9468 13.7467 10.9468H16.155C16.3759 10.9468 16.555 10.7677 16.555 10.5468V9.7685C16.555 8.88183 15.8317 8.17016 14.945 8.17016Z" fill="#8E49F9" stroke="#8E49F9" stroke-width="0.8"/>
</svg>
