<svg width="32" height="33" viewBox="0 0 32 33" fill="none" xmlns="http://www.w3.org/2000/svg">
<path d="M16 3.16663C23.364 3.16663 29.3333 9.13596 29.3333 16.5C29.3333 23.864 23.364 29.8333 16 29.8333C13.8429 29.8361 11.7177 29.3135 9.80797 28.3106L4.08797 29.8C3.89685 29.8497 3.69603 29.8487 3.50543 29.797C3.31482 29.7452 3.14105 29.6446 3.00132 29.505C2.8616 29.3654 2.76078 29.1917 2.70886 29.0012C2.65694 28.8106 2.65571 28.6098 2.70531 28.4186L4.19331 22.7C3.18771 20.7882 2.66367 18.66 2.66664 16.5C2.66664 9.13596 8.63597 3.16663 16 3.16663ZM17.6693 17.8333H11.6666L11.5306 17.8426C11.2913 17.8756 11.072 17.994 10.9132 18.1761C10.7544 18.3583 10.6669 18.5917 10.6669 18.8333C10.6669 19.0749 10.7544 19.3083 10.9132 19.4904C11.072 19.6726 11.2913 19.791 11.5306 19.824L11.6666 19.8333H17.6693L17.804 19.824C18.0433 19.791 18.2627 19.6726 18.4214 19.4904C18.5802 19.3083 18.6677 19.0749 18.6677 18.8333C18.6677 18.5917 18.5802 18.3583 18.4214 18.1761C18.2627 17.994 18.0433 17.8756 17.804 17.8426L17.6693 17.8333ZM20.3333 13.1666H11.6666L11.5306 13.176C11.2913 13.2089 11.072 13.3274 10.9132 13.5095C10.7544 13.6916 10.6669 13.925 10.6669 14.1666C10.6669 14.4082 10.7544 14.6417 10.9132 14.8238C11.072 15.0059 11.2913 15.1244 11.5306 15.1573L11.6666 15.1666H20.3333L20.4693 15.1573C20.7087 15.1244 20.928 15.0059 21.0868 14.8238C21.2455 14.6417 21.333 14.4082 21.333 14.1666C21.333 13.925 21.2455 13.6916 21.0868 13.5095C20.928 13.3274 20.7087 13.2089 20.4693 13.176L20.3333 13.1666Z" fill="#B685FC"/>
</svg>
