<svg width="28" height="28" viewBox="0 0 28 28" fill="none" xmlns="http://www.w3.org/2000/svg">
<path d="M5.25 4.375C4.32174 4.375 3.4315 4.74375 2.77513 5.40013C2.11875 6.0565 1.75 6.94674 1.75 7.875V8.75H26.25V7.875C26.25 6.94674 25.8813 6.0565 25.2249 5.40013C24.5685 4.74375 23.6783 4.375 22.75 4.375H5.25Z" fill="#8340F9"/>
<path fill-rule="evenodd" clip-rule="evenodd" d="M26.25 11.375H1.75V20.125C1.75 21.0533 2.11875 21.9435 2.77513 22.5999C3.4315 23.2563 4.32174 23.625 5.25 23.625H22.75C23.6783 23.625 24.5685 23.2563 25.2249 22.5999C25.8813 21.9435 26.25 21.0533 26.25 20.125V11.375ZM5.25 15.75C5.25 15.5179 5.34219 15.2954 5.50628 15.1313C5.67038 14.9672 5.89294 14.875 6.125 14.875H13.125C13.3571 14.875 13.5796 14.9672 13.7437 15.1313C13.9078 15.2954 14 15.5179 14 15.75C14 15.9821 13.9078 16.2046 13.7437 16.3687C13.5796 16.5328 13.3571 16.625 13.125 16.625H6.125C5.89294 16.625 5.67038 16.5328 5.50628 16.3687C5.34219 16.2046 5.25 15.9821 5.25 15.75ZM6.125 18.375C5.89294 18.375 5.67038 18.4672 5.50628 18.6313C5.34219 18.7954 5.25 19.0179 5.25 19.25C5.25 19.4821 5.34219 19.7046 5.50628 19.8687C5.67038 20.0328 5.89294 20.125 6.125 20.125H9.625C9.85706 20.125 10.0796 20.0328 10.2437 19.8687C10.4078 19.7046 10.5 19.4821 10.5 19.25C10.5 19.0179 10.4078 18.7954 10.2437 18.6313C10.0796 18.4672 9.85706 18.375 9.625 18.375H6.125Z" fill="#8340F9"/>
</svg>
