<svg width="24" height="24" viewBox="0 0 24 24" fill="none" xmlns="http://www.w3.org/2000/svg">
<path fill-rule="evenodd" clip-rule="evenodd" d="M9.46887 3.19506C9.56231 3.28847 9.62588 3.40753 9.65152 3.53714C9.67715 3.66675 9.6637 3.80106 9.61286 3.923C9.20651 4.89823 8.99804 5.9445 8.99957 7.001C8.99957 9.12258 9.84236 11.1573 11.3425 12.6575C12.8427 14.1576 14.8774 15.0004 16.999 15.0004C18.0555 15.002 19.1018 14.7935 20.077 14.3871C20.1989 14.3364 20.333 14.323 20.4625 14.3486C20.592 14.3741 20.711 14.4376 20.8044 14.5309C20.8978 14.6242 20.9614 14.7431 20.9871 14.8726C21.0129 15.0021 20.9996 15.1363 20.9489 15.2582C20.2397 16.9587 19.0431 18.4114 17.5098 19.4331C15.9765 20.4549 14.1752 21.0001 12.3327 21C7.17837 21 3 16.8225 3 11.6673C3 7.78495 5.3705 4.45719 8.74181 3.05107C8.86364 3.00042 8.99777 2.98707 9.1272 3.0127C9.25662 3.03833 9.37553 3.1018 9.46887 3.19506Z" fill="white"/>
</svg>
