<svg width="24" height="24" viewBox="0 0 24 24" fill="none" xmlns="http://www.w3.org/2000/svg">
<path d="M13.8626 17.8334C14.5835 17.8334 14.9643 18.6867 14.4835 19.2234C14.1711 19.573 13.7884 19.8525 13.3604 20.0438C12.9325 20.2351 12.4689 20.3338 12.0001 20.3334C11.5314 20.3338 11.0678 20.2351 10.6398 20.0438C10.2119 19.8525 9.82916 19.573 9.5168 19.2234C9.0568 18.7101 9.38514 17.9076 10.0451 17.8392L10.1368 17.8342L13.8626 17.8334Z" fill="#141414"/>
<path d="M12.0001 3.66675C13.1318 3.66675 14.0885 4.41925 14.396 5.45091L14.4343 5.59341L14.441 5.62925C15.3596 6.1475 16.1424 6.876 16.7253 7.75508C17.3082 8.63416 17.6745 9.63881 17.7943 10.6867L17.8176 10.9259L17.8335 11.1667V13.6092L17.851 13.7226C17.9651 14.3366 18.3048 14.8857 18.8034 15.2617L18.9426 15.3592L19.0776 15.4417C19.7943 15.8476 19.5443 16.9134 18.7634 16.9951L18.6668 17.0001H5.33345C4.47679 17.0001 4.17762 15.8634 4.92262 15.4417C5.24014 15.2621 5.51449 15.015 5.7264 14.7181C5.93831 14.4211 6.08265 14.0813 6.14929 13.7226L6.16679 13.6034L6.16762 11.1284C6.21843 10.04 6.53525 8.98059 7.09036 8.04297C7.64546 7.10535 8.42192 6.31809 9.35178 5.75008L9.55845 5.62841L9.56679 5.59258C9.68466 5.09427 9.95257 4.64411 10.3344 4.30286C10.7161 3.96161 11.1934 3.74569 11.7018 3.68425L11.8535 3.67008L12.0001 3.66675Z" fill="#141414"/>
</svg>
