<svg width="28" height="28" viewBox="0 0 28 28" fill="none" xmlns="http://www.w3.org/2000/svg">
<path d="M14.875 13.6459V9.04199C14.875 8.79408 14.7911 8.58621 14.6233 8.41841C14.4555 8.2508 14.2476 8.16699 13.9997 8.16699C13.7516 8.16699 13.5439 8.2508 13.3764 8.41841C13.2088 8.58621 13.125 8.79408 13.125 9.04199V13.9152C13.125 14.0524 13.1505 14.1854 13.2014 14.3142C13.2522 14.4429 13.3322 14.5619 13.4415 14.6712L17.4373 18.667C17.5987 18.8286 17.8017 18.9112 18.0463 18.9149C18.2909 18.9186 18.4977 18.836 18.6667 18.667C18.8357 18.498 18.9201 18.2931 18.9201 18.0522C18.9201 17.8114 18.8357 17.6066 18.6667 17.4376L14.875 13.6459ZM14.0021 25.0837C12.4691 25.0837 11.0281 24.7928 9.67927 24.211C8.33041 23.6292 7.15713 22.8397 6.15944 21.8424C5.16174 20.8451 4.37181 19.6723 3.78965 18.324C3.20767 16.9757 2.91669 15.5352 2.91669 14.0024C2.91669 12.4694 3.20758 11.0284 3.78935 9.67957C4.37113 8.33071 5.16067 7.15744 6.15798 6.15974C7.15528 5.16205 8.32808 4.37212 9.67635 3.78995C11.0246 3.20798 12.4652 2.91699 13.998 2.91699C15.531 2.91699 16.9719 3.20788 18.3208 3.78966C19.6696 4.37144 20.8429 5.16098 21.8406 6.15828C22.8383 7.15559 23.6282 8.32838 24.2104 9.67666C24.7924 11.0249 25.0834 12.4655 25.0834 13.9983C25.0834 15.5313 24.7925 16.9722 24.2107 18.3211C23.6289 19.6699 22.8394 20.8432 21.8421 21.8409C20.8448 22.8386 19.672 23.6285 18.3237 24.2107C16.9754 24.7927 15.5349 25.0837 14.0021 25.0837Z" fill="#6F6D72"/>
</svg>
