<svg width="28" height="28" viewBox="0 0 28 28" fill="none" xmlns="http://www.w3.org/2000/svg">
<g clip-path="url(#clip0_1812_8340)">
<path fill-rule="evenodd" clip-rule="evenodd" d="M4.23356 3.03771C4.38834 3.03771 4.54159 3.0682 4.68458 3.12743C4.82757 3.18666 4.9575 3.27347 5.06694 3.38291C5.17638 3.49235 5.26319 3.62228 5.32242 3.76527C5.38165 3.90826 5.41214 4.06151 5.41214 4.21629V8.14486C5.41218 8.66522 5.55986 9.17489 5.83802 9.61467C6.11618 10.0544 6.51341 10.4063 6.98357 10.6293V4.21629C6.98357 3.90371 7.10774 3.60394 7.32876 3.38291C7.54979 3.16189 7.84956 3.03771 8.16214 3.03771C8.47471 3.03771 8.77449 3.16189 8.99551 3.38291C9.21654 3.60394 9.34071 3.90371 9.34071 4.21629V10.6293C9.81086 10.4063 10.2081 10.0544 10.4863 9.61467C10.7644 9.17489 10.9121 8.66522 10.9121 8.14486V4.21629C10.9121 3.90371 11.0363 3.60394 11.2573 3.38291C11.4784 3.16189 11.7781 3.03771 12.0907 3.03771C12.4033 3.03771 12.7031 3.16189 12.9241 3.38291C13.1451 3.60394 13.2693 3.90371 13.2693 4.21629V8.14486C13.2692 9.22451 12.9269 10.2763 12.2917 11.1493C11.6564 12.0223 10.7608 12.6715 9.73356 13.0037V23.4286C9.73356 23.8453 9.568 24.245 9.2733 24.5397C8.9786 24.8344 8.57891 25 8.16214 25C7.74537 25 7.34567 24.8344 7.05097 24.5397C6.75627 24.245 6.59071 23.8453 6.59071 23.4286V13.0053C5.56318 12.673 4.66743 12.0236 4.03215 11.1503C3.39687 10.277 3.05477 9.22478 3.05499 8.14486V4.21629C3.05499 3.90371 3.17916 3.60394 3.40019 3.38291C3.62121 3.16189 3.92099 3.03771 4.23356 3.03771ZM20.0264 3.03771C17.2419 3.03771 15.4049 5.75157 15.4049 8.52043C15.4049 10.7267 16.5709 12.8984 18.4534 13.6904V23.4286C18.4534 23.8453 18.619 24.245 18.9137 24.5397C19.2084 24.8344 19.6081 25 20.0249 25C20.4416 25 20.8413 24.8344 21.136 24.5397C21.4307 24.245 21.5963 23.8453 21.5963 23.4286V13.6889C23.482 12.8984 24.648 10.7267 24.648 8.51886C24.648 5.75157 22.8094 3.03771 20.0264 3.03771Z" fill="#6F6D72"/>
</g>
<defs>
<clipPath id="clip0_1812_8340">
<rect width="22" height="22" fill="white" transform="translate(3 3)"/>
</clipPath>
</defs>
</svg>
