<svg width="20" height="20" viewBox="0 0 20 20" fill="none" xmlns="http://www.w3.org/2000/svg">
<path d="M2.81375 6.52174C4.36773 6.52174 5.62749 5.0618 5.62749 3.26087C5.62749 1.45994 4.36773 0 2.81375 0C1.25976 0 0 1.45994 0 3.26087C0 5.0618 1.25976 6.52174 2.81375 6.52174Z" fill="#9650FA"/>
<path d="M0 10.6522C0 9.69166 0.839832 8.91302 1.87583 8.91302H3.75161C4.78777 8.91302 5.62744 9.69166 5.62744 10.6522V18.2609C5.62744 19.2214 4.78777 20 3.75161 20H1.87583C0.839832 20 0 19.2214 0 18.2609V10.6522Z" fill="#9650FA"/>
<path d="M9.34985 18.1528C9.3658 19.1132 10.2247 19.8952 11.2423 19.7145C13.4038 19.3308 15.4032 18.3397 16.9563 16.8552C18.948 14.9514 20.0423 12.3921 19.9987 9.74027C19.9549 7.0884 18.7768 4.56125 16.7235 2.71473C15.1222 1.27486 13.0912 0.340823 10.918 0.0184555C9.89502 -0.133295 9.06215 0.672617 9.07786 1.633L9.09216 2.49864C9.10787 3.45901 9.97919 4.19997 10.9713 4.47669C11.8979 4.73516 12.7538 5.19675 13.4612 5.83293C14.6226 6.87732 15.289 8.30669 15.3138 9.80658C15.3384 11.3065 14.7194 12.754 13.593 13.8308C12.9069 14.4867 12.0665 14.9723 11.1488 15.2569C10.1663 15.5615 9.31984 16.3268 9.33555 17.2872L9.34985 18.1528Z" fill="#9650FA"/>
</svg>
