<svg width="28" height="28" viewBox="0 0 28 28" fill="none" xmlns="http://www.w3.org/2000/svg">
<path fill-rule="evenodd" clip-rule="evenodd" d="M8.74995 7C8.74995 5.60761 9.30307 4.27225 10.2876 3.28769C11.2722 2.30312 12.6076 1.75 14 1.75C15.3923 1.75 16.7277 2.30312 17.7123 3.28769C18.6968 4.27225 19.25 5.60761 19.25 7C19.25 8.39239 18.6968 9.72774 17.7123 10.7123C16.7277 11.6969 15.3923 12.25 14 12.25C12.6076 12.25 11.2722 11.6969 10.2876 10.7123C9.30307 9.72774 8.74995 8.39239 8.74995 7ZM4.37612 23.4558C4.41546 20.9294 5.4467 18.5197 7.24724 16.747C9.04778 14.9743 11.4732 13.9807 14 13.9807C16.5267 13.9807 18.9521 14.9743 20.7527 16.747C22.5532 18.5197 23.5844 20.9294 23.6238 23.4558C23.6268 23.6259 23.5802 23.7932 23.4897 23.9372C23.3991 24.0812 23.2686 24.1957 23.114 24.2667C20.2546 25.5777 17.1455 26.2543 14 26.25C10.7496 26.25 7.66145 25.5407 4.88595 24.2667C4.73135 24.1957 4.60079 24.0812 4.51024 23.9372C4.41969 23.7932 4.37308 23.6259 4.37612 23.4558Z" fill="#8E49F9"/>
</svg>
