<svg width="56" height="20" viewBox="0 0 56 20" fill="none" xmlns="http://www.w3.org/2000/svg">
<g clip-path="url(#clip0_4646_14622)">
<path d="M1.70264 0.724609H8.70263C10.0975 0.724609 11.29 0.989497 12.2801 1.51927C13.2789 2.04905 14.0323 2.78726 14.5403 3.73391C15.0483 4.67188 15.3023 5.75314 15.3023 6.97771C15.3023 8.19358 15.044 9.27051 14.5274 10.2085C14.0108 11.1378 13.2531 11.8716 12.2543 12.4101C11.2641 12.9399 10.063 13.2048 8.65097 13.2048H4.00153V10.4039H8.19894C9.02551 10.4039 9.71001 10.2606 10.2524 9.97399C10.8035 9.67869 11.2082 9.27485 11.4665 8.76245C11.7334 8.25005 11.8668 7.65513 11.8668 6.97771C11.8668 6.28293 11.7334 5.68367 11.4665 5.17994C11.2082 4.66754 10.8035 4.27237 10.2524 3.99446C9.70142 3.70786 9.0126 3.56456 8.18603 3.56456H5.06057V19.5881H1.70264V0.724609Z" fill="white"/>
<path d="M21.0368 6.56072C22.4063 6.56072 23.5165 5.16091 23.5165 3.43417C23.5165 1.70742 22.4063 0.307617 21.0368 0.307617C19.6673 0.307617 18.5571 1.70742 18.5571 3.43417C18.5571 5.16091 19.6673 6.56072 21.0368 6.56072Z" fill="#C7B4F8"/>
<path d="M18.5571 10.521C18.5571 9.60007 19.2973 8.85352 20.2103 8.85352H21.8634C22.7765 8.85352 23.5165 9.60007 23.5165 10.521V17.8163C23.5165 18.7372 22.7765 19.4838 21.8634 19.4838H20.2103C19.2973 19.4838 18.5571 18.7372 18.5571 17.8163V10.521Z" fill="#C7B4F8"/>
<path d="M27.7067 17.9195C27.7207 18.8403 28.4777 19.5901 29.3745 19.4169C31.2793 19.049 33.0414 18.0987 34.4102 16.6753C36.1654 14.85 37.1298 12.3961 37.0913 9.85346C37.0527 7.31083 36.0145 4.88777 34.205 3.11731C32.7938 1.73675 31.0039 0.841188 29.0887 0.5321C28.1871 0.3866 27.4531 1.15931 27.467 2.08014L27.4796 2.91012C27.4934 3.83093 28.2613 4.54137 29.1356 4.80669C29.9523 5.05452 30.7065 5.49709 31.33 6.10706C32.3535 7.10843 32.9407 8.47893 32.9626 9.91704C32.9843 11.3551 32.4388 12.7431 31.4461 13.7755C30.8415 14.4044 30.1008 14.87 29.2921 15.1428C28.4262 15.4349 27.6802 16.1687 27.6941 17.0895L27.7067 17.9195Z" fill="#C7B4F8"/>
<path d="M40.6328 0.724609H43.9907V9.41381H44.2362L51.5332 0.724609H55.666L48.4077 9.19235L55.7307 19.5881H51.6623L46.0702 11.4852L43.9907 13.9734V19.5881H40.6328V0.724609Z" fill="white"/>
</g>
<defs>
<clipPath id="clip0_4646_14622">
<rect width="56" height="19.3846" fill="white" transform="translate(0 0.307617)"/>
</clipPath>
</defs>
</svg>
