<svg width="56" height="20" viewBox="0 0 56 20" fill="none" xmlns="http://www.w3.org/2000/svg">
<g clip-path="url(#clip0_4646_8675)">
<path d="M1.70288 0.724609H8.70288C10.0977 0.724609 11.2902 0.989497 12.2804 1.51927C13.2792 2.04905 14.0325 2.78726 14.5405 3.73391C15.0485 4.67188 15.3025 5.75314 15.3025 6.97771C15.3025 8.19358 15.0442 9.27051 14.5276 10.2085C14.011 11.1378 13.2533 11.8716 12.2545 12.4101C11.2644 12.9399 10.0633 13.2048 8.65122 13.2048H4.00177V10.4039H8.19919C9.02575 10.4039 9.71026 10.2606 10.2527 9.97399C10.8037 9.67869 11.2084 9.27485 11.4667 8.76245C11.7336 8.25005 11.8671 7.65513 11.8671 6.97771C11.8671 6.28293 11.7336 5.68367 11.4667 5.17994C11.2084 4.66754 10.8037 4.27237 10.2527 3.99446C9.70166 3.70786 9.01284 3.56456 8.18627 3.56456H5.06081V19.5881H1.70288V0.724609Z" fill="#141414"/>
<path d="M21.0368 6.56072C22.4063 6.56072 23.5165 5.16091 23.5165 3.43417C23.5165 1.70742 22.4063 0.307617 21.0368 0.307617C19.6673 0.307617 18.5571 1.70742 18.5571 3.43417C18.5571 5.16091 19.6673 6.56072 21.0368 6.56072Z" fill="#9650FA"/>
<path d="M18.5571 10.521C18.5571 9.60007 19.2973 8.85352 20.2103 8.85352H21.8634C22.7765 8.85352 23.5165 9.60007 23.5165 10.521V17.8163C23.5165 18.7372 22.7765 19.4838 21.8634 19.4838H20.2103C19.2973 19.4838 18.5571 18.7372 18.5571 17.8163V10.521Z" fill="#9650FA"/>
<path d="M27.7066 17.9195C27.7206 18.8403 28.4776 19.5901 29.3744 19.4169C31.2792 19.049 33.0412 18.0987 34.41 16.6753C36.1653 14.85 37.1297 12.3961 37.0912 9.85346C37.0526 7.31083 36.0144 4.88777 34.2048 3.11731C32.7937 1.73675 31.0038 0.841188 29.0886 0.5321C28.187 0.3866 27.453 1.15931 27.4669 2.08014L27.4795 2.91012C27.4933 3.83093 28.2612 4.54137 29.1355 4.80669C29.9522 5.05452 30.7064 5.49709 31.3298 6.10706C32.3533 7.10843 32.9406 8.47893 32.9625 9.91704C32.9842 11.3551 32.4387 12.7431 31.446 13.7755C30.8413 14.4044 30.1007 14.87 29.2919 15.1428C28.4261 15.4349 27.6801 16.1687 27.694 17.0895L27.7066 17.9195Z" fill="#9650FA"/>
<path d="M40.6328 0.724609H43.9907V9.41381H44.2362L51.5332 0.724609H55.666L48.4077 9.19235L55.7307 19.5881H51.6623L46.0702 11.4852L43.9907 13.9734V19.5881H40.6328V0.724609Z" fill="#141414"/>
</g>
<defs>
<clipPath id="clip0_4646_8675">
<rect width="56" height="19.3846" fill="white" transform="translate(0 0.307617)"/>
</clipPath>
</defs>
</svg>
