<svg width="28" height="28" viewBox="0 0 28 28" fill="none" xmlns="http://www.w3.org/2000/svg">
<path d="M19.2 20.6914V23.2593H1V20.6914C1 20.6914 1 15.5556 10.1 15.5556C19.2 15.5556 19.2 20.6914 19.2 20.6914ZM14.65 8.49388C14.65 7.60509 14.3831 6.73625 13.8832 5.99725C13.3832 5.25825 12.6726 4.68226 11.8412 4.34214C11.0098 4.00201 10.095 3.91302 9.21234 4.08642C8.32972 4.25981 7.51899 4.6878 6.88266 5.31627C6.24634 5.94475 5.81299 6.74547 5.63743 7.61718C5.46186 8.48889 5.55197 9.39245 5.89635 10.2136C6.24073 11.0347 6.82391 11.7366 7.57216 12.2303C8.3204 12.7241 9.20009 12.9877 10.1 12.9877C11.3067 12.9877 12.464 12.5142 13.3173 11.6715C14.1706 10.8287 14.65 9.68571 14.65 8.49388ZM19.122 15.5556C19.9212 16.1664 20.5751 16.9428 21.0378 17.8301C21.5005 18.7174 21.7606 19.6941 21.8 20.6914V23.2593H27V20.6914C27 20.6914 27 16.0306 19.122 15.5556ZM17.9 4.00007C17.0052 3.99515 16.1301 4.25937 15.391 4.7576C16.1807 5.84733 16.6053 7.15381 16.6053 8.49388C16.6053 9.83395 16.1807 11.1404 15.391 12.2302C16.1301 12.7284 17.0052 12.9926 17.9 12.9877C19.1067 12.9877 20.264 12.5142 21.1173 11.6715C21.9706 10.8287 22.45 9.68571 22.45 8.49388C22.45 7.30205 21.9706 6.15903 21.1173 5.31627C20.264 4.47352 19.1067 4.00007 17.9 4.00007Z" fill="#6F6D72"/>
</svg>
