<svg width="30" height="28" viewBox="0 0 30 28" fill="none" xmlns="http://www.w3.org/2000/svg">
<path d="M23.4405 21.7601C22.3801 21.7582 21.3637 21.3402 20.6138 20.5976C19.8639 19.8551 19.4417 18.8484 19.4395 17.7982C19.4404 17.117 19.6186 16.4476 19.9569 15.8546C20.2953 15.2616 20.7823 14.7651 21.3709 14.413L21.3888 14.4033L22.7095 18.058C22.8199 18.3605 23.1066 18.5729 23.4437 18.5729C23.5344 18.5722 23.6243 18.5559 23.7093 18.5246L23.7036 18.5262C23.8002 18.4917 23.8891 18.4386 23.965 18.3701C24.0409 18.3015 24.1024 18.2188 24.146 18.1267C24.1896 18.0346 24.2145 17.9348 24.2191 17.8332C24.2237 17.7315 24.2081 17.63 24.1731 17.5343L24.1747 17.5399L22.854 13.8828C23.0287 13.8547 23.2309 13.837 23.4364 13.8354H23.4388C24.4992 13.8373 25.5156 14.2553 26.2655 14.9979C27.0154 15.7405 27.4376 16.7471 27.4398 17.7974C27.438 18.8474 27.0163 19.8548 26.2669 20.5975C25.5175 21.3403 24.5014 21.7586 23.4413 21.761L23.4405 21.7601ZM14.6036 16.3381L12.0663 11.2997L18.715 10.9594L14.6036 16.3381ZM12.0663 17.0243C11.8592 15.5886 11.089 14.2917 9.9229 13.4146L9.90909 13.405L10.6839 12.0165L13.2058 17.0243H12.0663ZM7.88751 17.0243L9.14562 14.7718C9.83161 15.3445 10.3038 16.1286 10.4866 16.9985L10.4906 17.0243H7.88751ZM6.56524 21.7601C5.50486 21.7582 4.48845 21.3402 3.73857 20.5976C2.9887 19.8551 2.56646 18.8484 2.56431 17.7982C2.56624 16.7479 2.98828 15.7412 3.738 14.9985C4.48773 14.2557 5.50405 13.8375 6.56443 13.8354C6.99977 13.8354 7.41805 13.9046 7.80954 14.0325L7.78111 14.0244L5.88298 17.4281C5.81656 17.5461 5.78278 17.6793 5.78506 17.8144C5.78734 17.9494 5.82561 18.0815 5.89598 18.1972L5.89436 18.194C6.03243 18.4232 6.28097 18.5737 6.56524 18.5745H10.4866C10.1048 20.4038 8.49179 21.7593 6.55955 21.7601H6.56524ZM23.4429 12.2876H23.4364C23.0417 12.2876 22.6567 12.3286 22.2847 12.4059L22.3212 12.3994L19.7758 5.35393C19.7333 5.23822 19.6636 5.13417 19.5725 5.05039C19.4815 4.9666 19.3715 4.90547 19.2519 4.87206L19.2462 4.87045L16.1273 4.02737C15.9285 3.9735 15.7163 3.99979 15.537 4.1005C15.3577 4.2012 15.226 4.36811 15.1706 4.56475L15.1689 4.57038C15.115 4.76686 15.1415 4.97649 15.2428 5.15366C15.3442 5.33084 15.512 5.46122 15.7099 5.51643L15.7156 5.51804L18.4446 6.25493L19.5735 9.37061L11.3101 9.79296L11.0023 9.18317H11.9039C12.0062 9.18349 12.1077 9.16376 12.2023 9.1251C12.297 9.08644 12.383 9.02963 12.4554 8.95792C12.5277 8.88622 12.5851 8.80105 12.6241 8.7073C12.6632 8.61356 12.6831 8.5131 12.6828 8.4117C12.6828 8.20687 12.6006 8.00963 12.4544 7.8648C12.3082 7.71997 12.1099 7.63861 11.9031 7.63861H7.41968C7.21288 7.63861 7.01456 7.71997 6.86833 7.8648C6.72211 8.00963 6.63996 8.20607 6.63996 8.41089C6.63964 8.51229 6.65957 8.61356 6.6986 8.7073C6.73763 8.80105 6.79499 8.88622 6.86738 8.95792C6.93977 9.02963 7.02576 9.08644 7.12041 9.1251C7.21506 9.16376 7.31649 9.18349 7.41887 9.18317H9.25283L9.83762 10.3416L8.54377 12.6585C7.9128 12.4152 7.24151 12.2908 6.56443 12.2916C5.08996 12.2929 3.67539 12.8733 2.6324 13.9056C1.58942 14.9379 1.00237 16.3378 1 17.7982C1.0015 19.2589 1.58793 20.6603 2.63063 21.6933C3.67333 22.7264 5.08717 23.3076 6.56199 23.3095C7.89555 23.3072 9.18395 22.8308 10.1928 21.9669C11.2016 21.1031 11.8639 19.9093 12.059 18.6026L12.0623 18.5729H14.4631C14.583 18.5729 14.7013 18.5456 14.8088 18.493C14.9163 18.4404 15.01 18.3639 15.0828 18.2696L15.0845 18.268L20.3094 11.4308L20.8503 12.9288C19.07 13.8708 17.8785 15.6977 17.876 17.7998V17.8006C17.8775 19.2613 18.464 20.6617 19.5067 21.6946C20.5494 22.7276 21.9633 23.3086 23.438 23.3103C24.9126 23.3086 26.3263 22.7277 27.369 21.6949C28.4117 20.6622 28.9983 19.2619 29 17.8014C28.9981 16.341 28.4114 14.9409 27.3687 13.9084C26.3261 12.8758 24.9125 12.2949 23.438 12.2932L23.4429 12.2876Z" fill="#6F6D72"/>
</svg>
