<svg width="24" height="24" viewBox="0 0 24 24" fill="none" xmlns="http://www.w3.org/2000/svg">
<path d="M18.75 12.75H20.25C20.4489 12.75 20.6397 12.671 20.7803 12.5303C20.921 12.3897 21 12.1989 21 12C21 11.8011 20.921 11.6103 20.7803 11.4697C20.6397 11.329 20.4489 11.25 20.25 11.25H18.75C18.5511 11.25 18.3603 11.329 18.2197 11.4697C18.079 11.6103 18 11.8011 18 12C18 12.1989 18.079 12.3897 18.2197 12.5303C18.3603 12.671 18.5511 12.75 18.75 12.75ZM12 6C12 5.80109 12.079 5.61032 12.2197 5.46967C12.3603 5.32902 12.5511 5.25 12.75 5.25H20.25C20.4489 5.25 20.6397 5.32902 20.7803 5.46967C20.921 5.61032 21 5.80109 21 6C21 6.19891 20.921 6.38968 20.7803 6.53033C20.6397 6.67098 20.4489 6.75 20.25 6.75H12.75C12.5511 6.75 12.3603 6.67098 12.2197 6.53033C12.079 6.38968 12 6.19891 12 6ZM12 18C12 17.8011 12.079 17.6103 12.2197 17.4697C12.3603 17.329 12.5511 17.25 12.75 17.25H20.25C20.4489 17.25 20.6397 17.329 20.7803 17.4697C20.921 17.6103 21 17.8011 21 18C21 18.1989 20.921 18.3897 20.7803 18.5303C20.6397 18.671 20.4489 18.75 20.25 18.75H12.75C12.5511 18.75 12.3603 18.671 12.2197 18.5303C12.079 18.3897 12 18.1989 12 18ZM3.75 6.75H5.25C5.44891 6.75 5.63968 6.67098 5.78033 6.53033C5.92098 6.38968 6 6.19891 6 6C6 5.80109 5.92098 5.61032 5.78033 5.46967C5.63968 5.32902 5.44891 5.25 5.25 5.25H3.75C3.55109 5.25 3.36032 5.32902 3.21967 5.46967C3.07902 5.61032 3 5.80109 3 6C3 6.19891 3.07902 6.38968 3.21967 6.53033C3.36032 6.67098 3.55109 6.75 3.75 6.75ZM5.25 18.75H3.75C3.55109 18.75 3.36032 18.671 3.21967 18.5303C3.07902 18.3897 3 18.1989 3 18C3 17.8011 3.07902 17.6103 3.21967 17.4697C3.36032 17.329 3.55109 17.25 3.75 17.25H5.25C5.44891 17.25 5.63968 17.329 5.78033 17.4697C5.92098 17.6103 6 17.8011 6 18C6 18.1989 5.92098 18.3897 5.78033 18.5303C5.63968 18.671 5.44891 18.75 5.25 18.75ZM3 12C3 11.8011 3.07902 11.6103 3.21967 11.4697C3.36032 11.329 3.55109 11.25 3.75 11.25H11.25C11.4489 11.25 11.6397 11.329 11.7803 11.4697C11.921 11.6103 12 11.8011 12 12C12 12.1989 11.921 12.3897 11.7803 12.5303C11.6397 12.671 11.4489 12.75 11.25 12.75H3.75C3.55109 12.75 3.36032 12.671 3.21967 12.5303C3.07902 12.3897 3 12.1989 3 12ZM9 3.75C8.40326 3.75 7.83097 3.98705 7.40901 4.40901C6.98705 4.83097 6.75 5.40326 6.75 6C6.75 6.59674 6.98705 7.16903 7.40901 7.59099C7.83097 8.01295 8.40326 8.25 9 8.25C9.59674 8.25 10.169 8.01295 10.591 7.59099C11.0129 7.16903 11.25 6.59674 11.25 6C11.25 5.40326 11.0129 4.83097 10.591 4.40901C10.169 3.98705 9.59674 3.75 9 3.75ZM12.75 12C12.75 11.4033 12.9871 10.831 13.409 10.409C13.831 9.98705 14.4033 9.75 15 9.75C15.5967 9.75 16.169 9.98705 16.591 10.409C17.0129 10.831 17.25 11.4033 17.25 12C17.25 12.5967 17.0129 13.169 16.591 13.591C16.169 14.0129 15.5967 14.25 15 14.25C14.4033 14.25 13.831 14.0129 13.409 13.591C12.9871 13.169 12.75 12.5967 12.75 12ZM9 15.75C8.40326 15.75 7.83097 15.9871 7.40901 16.409C6.98705 16.831 6.75 17.4033 6.75 18C6.75 18.5967 6.98705 19.169 7.40901 19.591C7.83097 20.0129 8.40326 20.25 9 20.25C9.59674 20.25 10.169 20.0129 10.591 19.591C11.0129 19.169 11.25 18.5967 11.25 18C11.25 17.4033 11.0129 16.831 10.591 16.409C10.169 15.9871 9.59674 15.75 9 15.75Z" fill="#141414"/>
</svg>
