<svg width="28" height="28" viewBox="0 0 28 28" fill="none" xmlns="http://www.w3.org/2000/svg">
<path d="M4.28341 23.9474C3.64531 23.9474 3.1052 23.7263 2.6631 23.2842C2.22099 22.8421 1.99994 22.302 1.99994 21.6639V7.28347C1.99994 6.64537 2.22099 6.10526 2.6631 5.66316C3.1052 5.22105 3.64531 5 4.28341 5H23.7165C24.3546 5 24.8947 5.22105 25.3368 5.66316C25.7789 6.10526 25.9999 6.64537 25.9999 7.28347V21.6639C25.9999 22.302 25.7789 22.8421 25.3368 23.2842C24.8947 23.7263 24.3546 23.9474 23.7165 23.9474H4.28341ZM4.28341 22.0526H17.4736V17.3887H3.89468V21.6639C3.89468 21.7612 3.9352 21.8502 4.01625 21.9311C4.0971 22.0121 4.18615 22.0526 4.28341 22.0526ZM19.3684 22.0526H23.7165C23.8137 22.0526 23.9028 22.0121 23.9836 21.9311C24.0647 21.8502 24.1052 21.7612 24.1052 21.6639V10.8301H19.3684V22.0526ZM3.89468 15.494H17.4736V10.8301H3.89468V15.494Z" fill="#6F6D72"/>
</svg>
