<svg width="24" height="24" viewBox="0 0 24 24" fill="none" xmlns="http://www.w3.org/2000/svg">
<path d="M12 6.6C11.7717 6.6 11.5527 6.5093 11.3913 6.34786C11.2298 6.18641 11.1391 5.96745 11.1391 5.73913V3.86087C11.1391 3.63255 11.2298 3.41359 11.3913 3.25214C11.5527 3.0907 11.7717 3 12 3C12.2283 3 12.4473 3.0907 12.6087 3.25214C12.7702 3.41359 12.8609 3.63255 12.8609 3.86087V5.73913C12.8609 5.96745 12.7702 6.18641 12.6087 6.34786C12.4473 6.5093 12.2283 6.6 12 6.6ZM12 21C11.7717 21 11.5527 20.9093 11.3913 20.7479C11.2298 20.5864 11.1391 20.3674 11.1391 20.1391V18.2609C11.1391 18.0326 11.2298 17.8136 11.3913 17.6521C11.5527 17.4907 11.7717 17.4 12 17.4C12.2283 17.4 12.4473 17.4907 12.6087 17.6521C12.7702 17.8136 12.8609 18.0326 12.8609 18.2609V20.1391C12.8609 20.3674 12.7702 20.5864 12.6087 20.7479C12.4473 20.9093 12.2283 21 12 21ZM16.4272 8.43365C16.257 8.43363 16.0906 8.38314 15.9491 8.28857C15.8075 8.194 15.6972 8.0596 15.632 7.90234C15.5669 7.74508 15.5498 7.57203 15.5829 7.40507C15.6161 7.2381 15.698 7.08472 15.8183 6.9643L17.1464 5.63622C17.3086 5.47828 17.5264 5.39057 17.7528 5.39206C17.9791 5.39355 18.1958 5.48413 18.3558 5.64418C18.5159 5.80424 18.6065 6.02089 18.6079 6.24724C18.6094 6.47359 18.5217 6.69142 18.3638 6.85357L17.0357 8.18165C16.9559 8.26166 16.861 8.3251 16.7566 8.36835C16.6522 8.4116 16.5402 8.43379 16.4272 8.43365ZM6.2447 18.6162C6.07442 18.6162 5.90798 18.5656 5.76642 18.471C5.62486 18.3764 5.51453 18.2419 5.4494 18.0846C5.38427 17.9273 5.36725 17.7542 5.40051 17.5872C5.43376 17.4202 5.51579 17.2668 5.63622 17.1464L6.9643 15.8183C7.04385 15.7367 7.13882 15.6716 7.24371 15.627C7.34861 15.5823 7.46132 15.5589 7.57533 15.5582C7.68933 15.5574 7.80235 15.5793 7.90782 15.6226C8.01329 15.6659 8.10911 15.7297 8.18972 15.8103C8.27034 15.8909 8.33413 15.9867 8.37742 16.0922C8.4207 16.1977 8.4426 16.3107 8.44185 16.4247C8.4411 16.5387 8.41771 16.6514 8.37304 16.7563C8.32838 16.8612 8.26332 16.9562 8.18165 17.0357L6.85357 18.3638C6.77371 18.4439 6.67881 18.5074 6.57432 18.5507C6.46983 18.5941 6.35781 18.6163 6.2447 18.6162ZM20.1391 12.8609H18.2609C18.0326 12.8609 17.8136 12.7702 17.6521 12.6087C17.4907 12.4473 17.4 12.2283 17.4 12C17.4 11.7717 17.4907 11.5527 17.6521 11.3913C17.8136 11.2298 18.0326 11.1391 18.2609 11.1391H20.1391C20.3674 11.1391 20.5864 11.2298 20.7479 11.3913C20.9093 11.5527 21 11.7717 21 12C21 12.2283 20.9093 12.4473 20.7479 12.6087C20.5864 12.7702 20.3674 12.8609 20.1391 12.8609ZM5.73913 12.8609H3.86087C3.63255 12.8609 3.41359 12.7702 3.25214 12.6087C3.0907 12.4473 3 12.2283 3 12C3 11.7717 3.0907 11.5527 3.25214 11.3913C3.41359 11.2298 3.63255 11.1391 3.86087 11.1391H5.73913C5.96745 11.1391 6.18641 11.2298 6.34786 11.3913C6.5093 11.5527 6.6 11.7717 6.6 12C6.6 12.2283 6.5093 12.4473 6.34786 12.6087C6.18641 12.7702 5.96745 12.8609 5.73913 12.8609ZM17.7553 18.6162C17.6422 18.6163 17.5302 18.5941 17.4257 18.5507C17.3212 18.5074 17.2263 18.4439 17.1464 18.3638L15.8183 17.0357C15.6604 16.8735 15.5727 16.6557 15.5742 16.4294C15.5757 16.203 15.6663 15.9864 15.8263 15.8263C15.9864 15.6663 16.203 15.5757 16.4294 15.5742C16.6557 15.5727 16.8735 15.6604 17.0357 15.8183L18.3638 17.1464C18.4842 17.2668 18.5662 17.4202 18.5995 17.5872C18.6327 17.7542 18.6157 17.9273 18.5506 18.0846C18.4855 18.2419 18.3751 18.3764 18.2336 18.471C18.092 18.5656 17.9256 18.6162 17.7553 18.6162ZM7.57278 8.43365C7.45975 8.43385 7.3478 8.41169 7.24337 8.36844C7.13894 8.32519 7.0441 8.26171 6.9643 8.18165L5.63622 6.85357C5.47828 6.69142 5.39057 6.47359 5.39206 6.24724C5.39355 6.02089 5.48413 5.80424 5.64418 5.64418C5.80424 5.48413 6.02089 5.39355 6.24724 5.39206C6.47359 5.39057 6.69142 5.47828 6.85357 5.63622L8.18165 6.9643C8.30197 7.08472 8.38389 7.2381 8.41705 7.40507C8.45021 7.57203 8.43313 7.74508 8.36797 7.90234C8.30281 8.0596 8.19248 8.194 8.05094 8.28857C7.90941 8.38314 7.74301 8.43363 7.57278 8.43365ZM12 15.9913C11.2106 15.9913 10.4389 15.7572 9.78255 15.3186C9.12618 14.8801 8.61461 14.2567 8.31252 13.5274C8.01042 12.7981 7.93138 11.9956 8.08539 11.2213C8.23939 10.4471 8.61953 9.73592 9.17772 9.17772C9.73592 8.61953 10.4471 8.23939 11.2213 8.08539C11.9956 7.93138 12.7981 8.01042 13.5274 8.31252C14.2567 8.61461 14.8801 9.12618 15.3186 9.78255C15.7572 10.4389 15.9913 11.2106 15.9913 12C15.9901 13.0582 15.5692 14.0727 14.8209 14.8209C14.0727 15.5692 13.0582 15.9901 12 15.9913Z" fill="#8340F9"/>
</svg>
