<svg width="241" height="86" viewBox="0 0 241 86" fill="none" xmlns="http://www.w3.org/2000/svg">
<path d="M0 85.9999V3.75342H30.8993C49.7569 3.75342 59.8672 15.2269 59.8672 31.0179C59.8672 46.8077 49.6432 58.1685 30.672 58.1685H14.7681V85.9999H0ZM14.7681 46.013H28.6272C39.76 46.013 44.7585 39.7644 44.7585 31.0179C44.7585 22.1563 39.76 16.1355 28.6272 16.1355H14.7681V46.013Z" fill="#141414"/>
<path d="M97.651 41.9184C97.651 35.832 92.717 30.8979 86.6306 30.8979C80.5442 30.8979 75.6102 35.832 75.6102 41.9184V74.9796C75.6102 81.066 80.5442 86 86.6306 86C92.717 86 97.651 81.066 97.651 74.9796V41.9184Z" fill="#9650FA"/>
<path d="M97.6512 11.306C97.6512 5.21965 92.7172 0.285645 86.6308 0.285645C80.5444 0.285645 75.6104 5.21965 75.6104 11.306V14.9795C75.6104 21.0659 80.5444 25.9999 86.6308 25.9999C92.7172 25.9999 97.6512 21.0659 97.6512 14.9795V11.306Z" fill="#9650FA"/>
<path d="M113.395 77.3828C113.395 82.5905 117.661 86.9105 122.756 85.8342C130.953 84.1015 138.541 80.1158 144.565 74.2591C152.832 66.2215 157.477 55.3212 157.477 43.9542C157.477 32.5873 152.832 21.6869 144.565 13.6493C138.541 7.7926 130.953 3.80689 122.756 2.07423C117.661 0.997908 113.395 5.31791 113.395 10.5257C113.395 15.7334 117.758 19.7914 122.608 21.6881C125.666 22.8844 128.474 24.6746 130.85 26.984C135.48 31.484 138.081 37.5893 138.081 43.9542C138.081 50.3191 135.48 56.4244 130.85 60.9244C128.474 63.2338 125.666 65.024 122.608 66.2203C117.758 68.1171 113.395 72.175 113.395 77.3828Z" fill="#9650FA"/>
<path d="M173.22 85.9999V2.8877H188.144V41.115H189.291L221.78 2.8877H240.032L207.889 40.1967L240.376 85.9999H222.353L197.442 50.2987L188.144 61.204V85.9999H173.22Z" fill="#141414"/>
</svg>
